# xmcd
#
# Track frame offsets:
#	150
#	18797
#	41305
#	58665
#	80195
#	104215
#	123342
#	145297
#	166315
#	179385
#	199974
#	215451
#	246630
#
# Disc length: 4177 seconds
#
# Revision: 1
# Processed by: cddbd v1.5.1PL0 Copyright (c) Steve Scherf et al.
# Submitted via: audiograbber 1.81.02
#
DISCID=c3104f0d
DTITLE=Rebecca St. James - Gold - Disc Two God - (www.gerth.de)
DYEAR=2004
DGENRE=Gospel
TTITLE0=God
TTITLE1=You're the voice
TTITLE2=You then me
TTITLE3=Speak to me
TTITLE4=Abba (Father)
TTITLE5=Me Without You
TTITLE6=That's what matters
TTITLE7=Carry me high
TTITLE8=A cold heart turns
TTITLE9=Go and sin no more
TTITLE10=Psalm 139 - bonus track
TTITLE11=Vision - bonus track
TTITLE12=Daten-CD
EXTD=
EXTT0=
EXTT1=
EXTT2=
EXTT3=
EXTT4=
EXTT5=
EXTT6=
EXTT7=
EXTT8=
EXTT9=
EXTT10=
EXTT11=
EXTT12=
PLAYORDER=
